<svg width="32" height="35" viewBox="0 0 32 35" fill="none" xmlns="http://www.w3.org/2000/svg">
<path d="M30.8974 1H28.8114C28.7541 1 28.7084 1.04765 28.7084 1.10636V1.95047H25.7315L25.4033 1.06807C25.388 1.02723 25.3497 1 25.3073 1H6.73056C6.68938 1 6.65231 1.02553 6.63584 1.06467L6.2734 1.95047H3.29527V1.14295C3.29527 1.08424 3.24956 1.03659 3.19231 1.03659H1.10461C1.04736 1.03659 1.00165 1.08424 1.00165 1.14295V2.86094V3.5187V4.64743C1.00165 4.6487 1 4.64955 1 4.65126C1 4.65296 1.00165 4.65338 1.00165 4.65509V4.72529V12.2916V12.3648V13.4926C1.00165 13.4939 1 13.4952 1 13.4965C1 13.4982 1.00165 13.4994 1.00165 13.5012V13.5714V21.1381V21.2113V22.3042C1.00165 22.3059 1 22.3068 1 22.3089C1 22.3098 1.00165 22.3115 1.00165 22.3123V22.417V29.9463V30.0195V31.1495C1.00165 31.1503 1 31.1512 1 31.1529C1 31.1546 1.00165 31.1554 1.00165 31.1571V32.0663V33.8205C1.00165 33.88 1.04736 33.9268 1.10461 33.9268H3.1919C3.24915 33.9268 3.29486 33.88 3.29486 33.8205V33.7081H28.7076V33.8205C28.7076 33.88 28.7537 33.9268 28.8106 33.9268H30.897C30.9543 33.9268 31 33.88 31 33.8205V32.0663V31.1537V30.0203V29.9463V22.4161V22.3072V21.2104V21.1372V13.5709V13.4977V12.3643V12.2912V4.72529V4.65211V3.5187V3.44594V2.86094V1.10636C31.0004 1.04765 30.9543 1 30.8974 1ZM28.9135 2.96731H30.2636V3.15833C30.2624 3.15833 30.2615 3.15706 30.2603 3.15706H28.9131L28.9135 2.96731ZM30.264 3.62506V4.54574H29.1606V3.62506H30.264ZM3.29486 2.16319H6.34095C6.38296 2.16319 6.41961 2.13767 6.43567 2.09853L6.79852 1.21273H25.2361L25.5647 2.09512C25.5796 2.13597 25.6179 2.16319 25.6603 2.16319H28.7072V2.79117H22.7921V2.49207H22.8304C22.8877 2.49207 22.9334 2.44442 22.9334 2.38571V1.69136C22.9334 1.63265 22.8877 1.585 22.8304 1.585H22.087C22.0298 1.585 21.9841 1.63265 21.9841 1.69136V2.38571C21.9841 2.44442 22.0298 2.49207 22.087 2.49207H22.1261V2.79117H18.6513V2.49207H18.6909C18.7477 2.49207 18.7938 2.44442 18.7938 2.38571V1.69136C18.7938 1.63265 18.7477 1.585 18.6909 1.585H17.9466C17.8898 1.585 17.8437 1.63265 17.8437 1.69136V2.38571C17.8437 2.44442 17.8898 2.49207 17.9466 2.49207H17.9853V2.79117H14.0521V2.49207H14.055C14.1123 2.49207 14.1584 2.44442 14.1584 2.38571V1.69136C14.1584 1.63265 14.1123 1.585 14.055 1.585H13.3124C13.2556 1.585 13.2095 1.63265 13.2095 1.69136V2.38571C13.2095 2.44442 13.2556 2.49207 13.3124 2.49207H13.3511V2.79117H9.87673V2.49207H9.91545C9.97269 2.49207 10.0184 2.44442 10.0184 2.38571V1.69136C10.0184 1.63265 9.97269 1.585 9.91545 1.585H9.17246C9.11562 1.585 9.06949 1.63265 9.06949 1.69136V2.38571C9.06949 2.44442 9.11562 2.49207 9.17246 2.49207H9.21076V2.79117H3.29486V2.16319ZM22.7917 23.8452V22.1932H28.6009V23.8452H22.7917ZM28.6013 24.058V29.6936H22.7909L22.7917 24.058H28.6013ZM22.7917 21.9805V18.3922H28.6009V21.9805H22.7917ZM22.7917 18.1799L22.7921 16.4917H28.6009V18.1799H22.7917ZM22.7921 16.2785V13.6773H22.8304C22.8877 13.6773 22.9334 13.6296 22.9334 13.5709V12.8762C22.9334 12.8174 22.8877 12.7698 22.8304 12.7698H22.7921V12.7264H28.6009V16.2785H22.7921ZM22.7921 12.5141V10.8259H28.6009V12.5141H22.7921ZM22.7921 10.6132V10.497H23.2188C23.2761 10.497 23.3218 10.4494 23.3218 10.3906V10.3877H25.9441C26.0009 10.3877 26.047 10.34 26.047 10.2813V9.91584C26.047 9.85968 26.0042 9.81331 25.9511 9.80948L23.3218 9.63291V9.51336C23.3218 9.45465 23.2761 9.40699 23.2188 9.40699H22.7921V5.01417H28.6009V10.6132H22.7921ZM22.7921 10.2843V9.61972H23.1158V10.2843H22.7921ZM23.3218 10.1749V9.84649L25.8411 10.0154V10.1749H23.3218ZM28.7076 3.00389V3.15663H22.7921V3.00389H28.7076ZM22.7275 32.4284V32.9104H22.19V32.4284H22.7275ZM22.3321 32.2157V31.4056H22.585V32.2157H22.3321ZM22.1933 31.1929L22.19 30.016H22.7275V31.1929H22.1933ZM22.5858 22.0877V23.9508C22.5858 23.9516 22.585 23.9516 22.585 23.9516C22.585 23.9525 22.5858 23.9525 22.5858 23.9525L22.585 29.7999V29.8033H22.3321V13.6773H22.5862L22.5858 22.086C22.5858 22.0868 22.585 22.0868 22.585 22.0868C22.585 22.0877 22.5858 22.0877 22.5858 22.0877ZM22.19 13.4646V12.9825H22.7275V13.4646H22.19ZM22.3321 12.7698V4.86824H22.5862V12.7702H22.3321V12.7698ZM22.1937 4.65551L22.19 3.51572H22.7275V4.65551H22.1937ZM22.3321 3.30299V2.49207H22.5862V3.30299H22.3321ZM22.19 2.27934V1.79773H22.7275V2.27934H22.19ZM22.087 13.6773H22.1261V16.2785H18.6513V13.6773H18.6909C18.7477 13.6773 18.7938 13.6296 18.7938 13.5709V12.8762C18.7938 12.8174 18.7477 12.7698 18.6909 12.7698H18.6513V12.7264H22.1261V12.7698H22.087C22.0298 12.7698 21.9841 12.8174 21.9841 12.8762V13.5709C21.9841 13.6296 22.031 13.6773 22.087 13.6773ZM18.7922 29.9063H21.9853C21.9853 29.908 21.9841 29.908 21.9841 29.9097V31.2992C21.9841 31.3001 21.9853 31.3009 21.9853 31.3018H18.7922C18.7922 31.3009 18.7938 31.3001 18.7938 31.2992V29.9097C18.7938 29.908 18.7922 29.908 18.7922 29.9063ZM22.1261 31.5141V31.6664H18.6513V31.5141H22.1261ZM18.6517 29.6936V24.058H22.1266V29.6936H18.6517ZM18.6517 23.8452V22.1932H22.1266V23.8452H18.6517ZM18.6517 21.9805V18.3922H22.1266V21.9805H18.6517ZM18.6517 18.1799V16.4917H22.1266V18.1799H18.6517ZM18.6517 12.5141V10.8259H22.1266V12.5141H18.6517ZM18.6517 10.6132V10.497H19.0797C19.1361 10.497 19.1826 10.4494 19.1826 10.3906V10.3877H21.8041C21.8613 10.3877 21.907 10.34 21.907 10.2813V9.91584C21.907 9.85968 21.8642 9.81331 21.8115 9.80948L19.1826 9.63291V9.51336C19.1826 9.45465 19.1361 9.40699 19.0797 9.40699H18.6517V5.01417H22.1266V10.6132H18.6517ZM18.6517 10.2843V9.61972H18.9767V10.2843H18.6517ZM19.1826 10.1749V9.84649L21.7015 10.0154V10.1749H19.1826ZM18.7778 3.36936H22.0001C21.9935 3.38255 21.9841 3.39361 21.9841 3.40935V4.76188C21.9841 4.77762 21.9935 4.78825 22.0001 4.80144H18.7778C18.7839 4.78825 18.7938 4.77719 18.7938 4.76188V3.40935C18.7938 3.39361 18.7839 3.38255 18.7778 3.36936ZM18.6517 3.15663V3.00389H22.1266V3.15663H18.6517ZM18.5879 32.4284V32.9104H18.0496V32.4284H18.5879ZM18.1913 32.2157V31.4056H18.4454V32.2157H18.1913ZM18.0537 31.1929L18.0496 30.016H18.5879V31.1929H18.0537ZM18.1913 29.8033V13.6773H18.4454V29.8033H18.1913ZM18.0508 13.4646V12.9825H18.5887V13.4646H18.0508ZM18.1913 12.7698V4.86824H18.4454V12.7702H18.1913V12.7698ZM18.0537 4.65551L18.0496 3.51572H18.5879V4.65551H18.0537ZM18.1913 3.30299V2.49207H18.4454V3.30299H18.1913ZM18.0508 2.27934V1.79773H18.5887V2.27934H18.0508ZM14.1291 10.8259V12.5141H14.0521V10.8259H14.1291ZM14.0521 10.6132V5.01417H14.1296V10.6132H14.0521ZM14.1291 12.7268V12.8051C14.1102 12.7843 14.0851 12.7702 14.0546 12.7702H14.0521V12.7268H14.1291ZM14.0546 13.6773C14.0847 13.6773 14.1102 13.6632 14.1291 13.6424V16.2785H14.0521V13.6773H14.0546ZM14.1291 16.4913V18.1799H14.0521V16.4913H14.1291ZM14.1291 18.3926V21.9813H14.0521V18.3926H14.1291ZM14.1287 22.1932V23.8452H14.0521V22.1932H14.1287ZM14.1291 24.058L14.1287 29.6936H14.0521V24.058H14.1291ZM15.7889 31.5141H16.2135H17.9858V31.6664H14.0525V31.5141H15.7889ZM14.1419 3.36936H15.686V31.3013H14.1563C14.1563 31.3005 14.158 31.2996 14.158 31.2988V29.9088C14.158 29.9071 14.1563 29.9071 14.1563 29.9054H14.2317C14.2885 29.9054 14.3347 29.8582 14.3347 29.7991L14.3351 18.2854C14.3351 18.2845 14.3351 18.2845 14.3351 18.2845V16.3836V16.3832V12.6196V12.6188V10.7178V4.90781C14.3351 4.87973 14.3248 4.8525 14.3054 4.8325C14.2861 4.8125 14.2597 4.80144 14.2321 4.80144H14.1419C14.1477 4.78825 14.158 4.77719 14.158 4.76188V3.40935C14.158 3.39361 14.1477 3.38255 14.1419 3.36936ZM17.861 4.80144H17.7708C17.7139 4.80144 17.6678 4.84909 17.6678 4.90781V10.7195V12.6205V16.3853V18.2862V22.0877V23.9525V29.8008C17.6678 29.8603 17.7139 29.9071 17.7708 29.9071H17.8457C17.8457 29.9088 17.8449 29.9088 17.8449 29.9105V31.3005C17.8449 31.3013 17.8457 31.3022 17.8457 31.303H16.3165V3.36936H17.861C17.8544 3.38255 17.8449 3.39361 17.8449 3.40935V4.76188C17.8449 4.77719 17.8544 4.78825 17.861 4.80144ZM17.8737 29.6936V24.058H17.9853V29.6936H17.8737ZM17.8737 23.8452V22.1932H17.9853V23.8452H17.8737ZM17.8737 21.9805V18.3922H17.9853V21.9805H17.8737ZM17.8737 18.1799V16.4917H17.9853V18.1799H17.8737ZM17.8737 16.2785V13.6441C17.8931 13.6641 17.9178 13.6773 17.9479 13.6773H17.9866V16.2785H17.8737ZM17.9479 12.7698C17.9186 12.7698 17.8931 12.783 17.8737 12.803V12.7264H17.9853V12.7698H17.9479ZM17.8737 12.5141V10.8259H17.9853V12.5141H17.8737ZM17.8737 10.6132V5.01417H17.9853V10.6132H17.8737ZM16.2135 3.15663C16.1567 3.15663 16.1106 3.20428 16.1106 3.263V31.3013H15.8923V3.263C15.8923 3.20428 15.8462 3.15663 15.7893 3.15663H14.0521V3.00389H17.9862V3.15663H16.2135ZM13.9516 32.4284V32.9104H13.415V32.4284H13.9516ZM13.5567 32.2157V31.4056H13.8458V32.2157H13.5567ZM13.4154 31.1929V30.016H13.9492L13.952 31.1929H13.4154ZM13.5567 29.8033V13.6773H13.8458V29.8033H13.5567ZM13.4154 13.4646V12.9825H13.952V13.4646H13.4154ZM13.5567 12.7698V4.86824H13.8458V12.7702H13.5567V12.7698ZM13.4154 4.65551V3.51572H13.9492L13.952 4.65551H13.4154ZM13.5567 3.30299V2.49207H13.8458V3.30299H13.5567ZM13.4154 2.27934V1.79773H13.952V2.27934H13.4154ZM12.9582 9.40699C12.901 9.40699 12.8553 9.45465 12.8553 9.51336V9.63291L10.1914 9.80948C10.137 9.81288 10.0954 9.85968 10.0954 9.91584V10.2813C10.0954 10.34 10.1411 10.3877 10.1984 10.3877H12.8553V10.3906C12.8553 10.4494 12.901 10.497 12.9582 10.497H13.3507V10.6132H9.87632V5.01417H13.3507V9.40742L12.9582 9.40699ZM13.3507 9.61972V10.2843H13.0612V9.61972H13.3507ZM12.8553 9.84607V10.1745H10.3014V10.015L12.8553 9.84607ZM13.3124 13.6773H13.3511V16.2785H9.87673V13.6773H9.91545C9.97269 13.6773 10.0184 13.6296 10.0184 13.5709V12.8762C10.0184 12.8174 9.97269 12.7698 9.91545 12.7698H9.87673V12.7264H13.3511V12.7698H13.3124C13.2556 12.7698 13.2095 12.8174 13.2095 12.8762V13.5709C13.2095 13.6296 13.2556 13.6773 13.3124 13.6773ZM10.0176 29.9063H13.2111C13.2111 29.908 13.2095 29.908 13.2095 29.9097V31.2992C13.2095 31.3001 13.2111 31.3009 13.2111 31.3018H10.0176C10.0176 31.3009 10.0184 31.3001 10.0184 31.2992V29.9097C10.0184 29.908 10.0176 29.908 10.0176 29.9063ZM13.3507 31.5141V31.6664H9.87632V31.5141H13.3507ZM9.87673 29.6936V24.058H13.3511V29.6936H9.87673ZM9.87673 23.8452V22.1932H13.3511V23.8452H9.87673ZM9.87673 21.9805V18.3922H13.3511V21.9805H9.87673ZM9.87673 18.1799V16.4917H13.3511V18.1799H9.87673ZM9.87673 12.5141V10.8259H13.3511V12.5141H9.87673ZM10.0028 3.36936H13.2255C13.2198 3.38255 13.2095 3.39361 13.2095 3.40935V4.76188C13.2095 4.77762 13.2198 4.78825 13.2255 4.80144H10.0028C10.0089 4.78825 10.0184 4.77719 10.0184 4.76188V3.40935C10.0184 3.39361 10.0081 3.38255 10.0028 3.36936ZM9.87673 3.15663V3.00389H13.3511V3.15663H9.87673ZM9.81248 32.4284V32.9104H9.27501V32.4284H9.81248ZM9.41669 32.2157V31.4056H9.6708V32.2157H9.41669ZM9.27501 31.1929V30.016H9.80919L9.81248 31.1929H9.27501ZM9.41669 29.8033V13.6773H9.6708V29.8033H9.41669ZM9.27542 13.4646V12.9825H9.81248V13.4646H9.27542ZM9.41669 12.7698V4.86824H9.6708V12.7702H9.41669V12.7698ZM9.27542 4.65551V3.51572H9.8096L9.81248 4.65551H9.27542ZM9.41669 3.30299V2.49207H9.6708V3.30299H9.41669ZM9.27542 2.27934V1.79773H9.81248V2.27934H9.27542ZM3.29486 3.00389H9.21035V3.15663H3.29486V3.00389ZM8.78325 9.40699C8.72642 9.40699 8.68029 9.45465 8.68029 9.51336V9.63291L6.05182 9.80948C5.99746 9.81331 5.95545 9.85968 5.95545 9.91584V10.2813C5.95545 10.34 6.00117 10.3877 6.05841 10.3877H8.68029V10.3906C8.68029 10.4494 8.72642 10.497 8.78325 10.497H9.21076V10.6132H3.40112V5.01417H9.21035V9.40742L8.78325 9.40699ZM9.21076 9.61972V10.2843H8.88622V9.61972H9.21076ZM8.68029 9.84607V10.1745H6.16097V10.015L8.68029 9.84607ZM9.17246 13.6773H9.21076V16.2785H3.40112V12.7264H9.21035V12.7698H9.17205C9.11521 12.7698 9.06908 12.8174 9.06908 12.8762V13.5709C9.06949 13.6296 9.11562 13.6773 9.17246 13.6773ZM3.40112 23.8452V22.1932H9.21035V23.8452H3.40112ZM9.21076 24.058V29.6936H3.40112V24.058H9.21076ZM3.40112 21.9805V18.3922H9.21035V21.9805H3.40112ZM3.40112 18.1799V16.4917H9.21035V18.1799H3.40112ZM3.40112 12.5141V10.8259H9.21035V12.5141H3.40112ZM1.20758 1.24932H3.08893V2.79117H1.71004C1.69109 2.76947 1.66597 2.75458 1.63508 2.75458H1.20758V1.24932ZM1.73846 3.15791V3.00389H3.08893V3.15663H1.74134C1.7401 3.15663 1.73928 3.15791 1.73846 3.15791ZM2.84141 3.62506V4.54574H1.73846V3.62506H2.84141ZM1.73846 12.4711H2.84141V13.3918H1.73846V12.4711ZM1.73846 21.3168H2.84141V22.2009H1.73846V21.3168ZM1.73846 30.1258H2.84141V31.0465H1.73846V30.1258ZM1.20758 2.96731H1.53253V3.41233H1.20758V2.96731ZM1.20758 3.62506H1.53253V4.54574H1.20758V3.62506ZM1.20758 4.75847H1.53253V12.1852H1.20758V4.75847ZM1.20758 12.4711H1.53253V13.3918H1.20758V12.4711ZM1.20758 13.6773H1.53253V21.0309H1.20758V13.6773ZM1.20758 21.3168H1.53253V22.2009H1.20758V21.3168ZM1.20758 22.5225H1.53253V29.8399H1.20758V22.5225ZM1.20758 30.1258H1.53253V31.0465H1.20758V30.1258ZM1.20758 31.3324H1.53253V31.96H1.20758V31.3324ZM3.08893 33.7137H1.20758V32.1723H1.63549H3.08893V33.7137ZM3.08893 31.7736V31.8085C3.08893 31.8102 3.0877 31.811 3.0877 31.8127C3.0877 31.8136 3.08893 31.8144 3.08893 31.8161V31.96H1.73846V31.5137C1.73928 31.5137 1.7401 31.5145 1.74134 31.5145H3.08893V31.7736ZM3.1919 31.3013H1.8443V31.2584H2.94437C3.00162 31.2584 3.04734 31.2107 3.04734 31.152V30.019C3.04734 29.9603 3.00162 29.9127 2.94437 29.9127H1.73846V22.4161V22.4136H2.94437C3.00162 22.4136 3.04734 22.3655 3.04734 22.3072V21.2104C3.04734 21.1521 3.00162 21.104 2.94437 21.104H1.73846V13.6041H2.94437C3.00162 13.6041 3.04734 13.5565 3.04734 13.4977V12.3643C3.04734 12.3056 3.00162 12.258 2.94437 12.258H1.73846V4.75847H2.94437C3.00162 4.75847 3.04734 4.71082 3.04734 4.65211V3.5187C3.04734 3.45998 3.00162 3.41233 2.94437 3.41233H1.8443V3.36936H9.08556C9.07938 3.38255 9.06949 3.39361 9.06949 3.40935V4.76188C9.06949 4.77762 9.07938 4.78825 9.08514 4.80144H3.29816C3.24091 4.80144 3.19519 4.84909 3.19519 4.90781V29.7999C3.19519 29.8591 3.24091 29.9063 3.29816 29.9063H9.06991C9.06991 29.908 9.06908 29.908 9.06908 29.9097V31.2992C9.06908 31.3001 9.06991 31.3009 9.06991 31.3018L3.1919 31.3013ZM9.21076 31.5141V31.6664H3.29486V31.5141H9.21076ZM28.7076 32.0659V33.495H3.29486V32.0659V31.917H9.21035V32.2148H9.17163C9.11439 32.2148 9.06867 32.262 9.06867 32.3212V33.0164C9.06867 33.0746 9.11439 33.1227 9.17163 33.1227H9.91503C9.97228 33.1227 10.018 33.0746 10.018 33.0164V32.3212C10.018 32.262 9.97228 32.2148 9.91503 32.2148H9.87632V31.917H13.3507V32.2148H13.312C13.2552 32.2148 13.2091 32.262 13.2091 32.3212V33.0164C13.2091 33.0746 13.2552 33.1227 13.312 33.1227H14.0546C14.1118 33.1227 14.158 33.0746 14.158 33.0164V32.3212C14.158 32.262 14.1118 32.2148 14.0546 32.2148H14.0521V31.917H17.9862V32.2148H17.9475C17.8902 32.2148 17.8445 32.262 17.8445 32.3212V33.0164C17.8445 33.0746 17.8902 33.1227 17.9475 33.1227H18.6913C18.7481 33.1227 18.7942 33.0746 18.7942 33.0164V32.3212C18.7942 32.262 18.7481 32.2148 18.6913 32.2148H18.6521V31.917H22.1266V32.2148H22.087C22.0306 32.2148 21.9841 32.262 21.9841 32.3212V33.0164C21.9841 33.0746 22.0306 33.1227 22.087 33.1227H22.8308C22.8877 33.1227 22.9338 33.0746 22.9338 33.0164V32.3212C22.9338 32.262 22.8877 32.2148 22.8308 32.2148H22.7917V31.917H28.708V32.0659H28.7076ZM28.7076 31.6672H22.7909V31.5145H28.7072L28.7076 31.6672ZM22.9322 31.3013C22.9322 31.3005 22.9334 31.2996 22.9334 31.2988V29.9088C22.9334 29.9071 22.9322 29.9071 22.9322 29.9054H28.7043C28.7616 29.9054 28.8073 29.8582 28.8073 29.7991V4.90781C28.8073 4.84909 28.7616 4.80144 28.7043 4.80144H22.9173C22.9239 4.78825 22.9334 4.77719 22.9334 4.76188V3.40935C22.9334 3.39361 22.9239 3.38255 22.9173 3.36936H30.1578V3.41233H29.0577C29.0008 3.41233 28.9547 3.45998 28.9547 3.5187V4.65211C28.9547 4.71082 29.0008 4.75847 29.0577 4.75847H30.264V12.2584H29.0577C29.0008 12.2584 28.9547 12.306 28.9547 12.3648V13.4982C28.9547 13.5569 29.0008 13.6045 29.0577 13.6045H30.264V21.1036H29.0577C29.0008 21.1036 28.9547 21.1517 28.9547 21.21V22.3068C28.9547 22.3651 29.0008 22.4132 29.0577 22.4132H30.264V22.4157V29.9127H29.0577C29.0008 29.9127 28.9547 29.9607 28.9547 30.019V31.1524C28.9547 31.2107 29.0008 31.2588 29.0577 31.2588H30.1578V31.3013H28.8106H22.9322ZM30.264 12.4711V13.3918H29.1606V12.4711H30.264ZM30.264 21.3168V22.2009H29.1606V21.3168H30.264ZM28.9135 31.8085V31.7736V31.5145H30.2607C30.262 31.5145 30.2628 31.5137 30.264 31.5137V31.96H28.9144V31.8161C28.9144 31.8144 28.916 31.8136 28.916 31.8127C28.9148 31.811 28.9135 31.8102 28.9135 31.8085ZM29.1606 31.0465V30.1258H30.264V31.0465H29.1606ZM30.7945 33.7137H28.9144V32.1723H30.367H30.7945V33.7137ZM30.7945 31.9595H30.4699V31.2592H30.7945V31.9595ZM30.7945 31.0465H30.4699V30.1258H30.7945V31.0465ZM30.7945 29.9131H30.4699V22.5225H30.7945V29.9131ZM30.7945 22.2009H30.4699V21.3168H30.7945V22.2009ZM30.7945 21.0309H30.4699V13.6773H30.7945V21.0309ZM30.7945 13.3914H30.4699V12.4707H30.7945V13.3914ZM30.7945 12.1852H30.4699V4.75847H30.7945V12.1852ZM30.7945 4.54574H30.4699V3.62506H30.7945V4.54574ZM30.7945 3.41233H30.4699V2.96731H30.7945V3.41233ZM30.7945 2.75458H30.367H28.9144V1.21273H30.7945V2.75458Z" stroke="#F9F9F9" stroke-width="0.5"/>
</svg>
