<svg width="42" height="34" viewBox="0 0 42 34" fill="none" xmlns="http://www.w3.org/2000/svg">
<path d="M40.6612 6.66565L27.7374 1.04621C27.5965 0.985041 27.437 0.98457 27.2961 1.04498L1.34149 12.1641C1.13467 12.2527 1 12.4573 1 12.6839C1 12.6837 1 12.6841 1 12.6839V27.6385C1 27.8649 1.13402 28.0695 1.34056 28.1585L14.3342 33.7533C14.3543 33.7622 14.3749 33.7697 14.3958 33.7761C14.3961 33.7761 14.3966 33.7762 14.3971 33.7764C14.4495 33.7922 14.5034 33.8 14.5572 33.8C14.5589 33.8 14.5607 33.8 14.5625 33.8C14.5631 33.7995 14.5634 33.8 14.564 33.8C14.5644 33.8 14.5649 33.8 14.5654 33.8C14.621 33.7992 14.6767 33.79 14.7306 33.7723C14.731 33.7723 14.7314 33.7718 14.7319 33.7719C14.7477 33.7666 14.7633 33.7608 14.7787 33.7541L40.6588 22.6549C40.8657 22.5662 41 22.3613 41 22.1346V7.18635C41.0005 6.96007 40.8672 6.75528 40.6612 6.66565ZM2.12149 13.541L6.79587 15.5549V29.2777L2.12149 27.2651V13.541ZM13.9965 32.3782L7.91737 29.7606V16.0381L13.9965 18.6572V32.3782ZM14.5577 17.6692L2.9914 12.686L27.5138 2.18061L39.0148 7.18135L14.5577 17.6692ZM39.8785 21.7604L15.118 32.3795V18.6579L39.8785 8.03981V21.7604Z" fill="#F9F9F9"/>
<path d="M1 12.6839C1 12.4573 1.13467 12.2527 1.34149 12.1641L27.2961 1.04498C27.437 0.98457 27.5965 0.985041 27.7374 1.04621L40.6612 6.66565C40.8672 6.75528 41.0005 6.96007 41 7.18635V22.1346C41 22.3613 40.8657 22.5662 40.6588 22.6549L14.7787 33.7541C14.7633 33.7608 14.7477 33.7666 14.7319 33.7719C14.7314 33.7718 14.731 33.7723 14.7306 33.7723C14.6767 33.79 14.621 33.7992 14.5654 33.8C14.5649 33.8 14.5644 33.8 14.564 33.8C14.5634 33.8 14.5631 33.7995 14.5625 33.8C14.5607 33.8 14.5589 33.8 14.5572 33.8C14.5034 33.8 14.4495 33.7922 14.3971 33.7764C14.3966 33.7763 14.3961 33.7761 14.3958 33.7761C14.3749 33.7697 14.3543 33.7622 14.3342 33.7534L1.34056 28.1585C1.13402 28.0695 1 27.8649 1 27.6385V12.6839ZM1 12.6839C1 12.6841 1 12.6837 1 12.6839ZM2.12149 13.541L6.79587 15.5549V29.2777L2.12149 27.2651V13.541ZM13.9965 32.3782L7.91737 29.7606V16.0381L13.9965 18.6572V32.3782ZM14.5577 17.6692L2.9914 12.686L27.5138 2.18061L39.0148 7.18135L14.5577 17.6692ZM39.8785 21.7604L15.118 32.3795V18.6579L39.8785 8.03981V21.7604Z" stroke="#F9F9F9" stroke-width="0.4"/>
<path d="M9.23262 25.1034C9.54225 25.1034 9.79337 24.8502 9.79337 24.5379V21.817C9.79337 21.5048 9.54225 21.2516 9.23262 21.2516C8.923 21.2516 8.67188 21.5048 8.67188 21.817V24.5379C8.67188 24.8502 8.9229 25.1034 9.23262 25.1034Z" fill="#F9F9F9"/>
<path d="M5.48262 20.2562C5.173 20.2562 4.92188 20.5095 4.92188 20.8217V23.5428C4.92188 23.855 5.173 24.1082 5.48262 24.1082C5.79225 24.1082 6.04337 23.855 6.04337 23.5428V20.8217C6.04337 20.5095 5.79225 20.2562 5.48262 20.2562Z" fill="#F9F9F9"/>
<path d="M17.9123 30.1133C18.222 30.1133 18.4731 29.86 18.4731 29.5478V19.403C18.4731 19.0908 18.222 18.8375 17.9123 18.8375C17.6026 18.8375 17.3516 19.0908 17.3516 19.403V29.5478C17.3516 29.86 17.6026 30.1133 17.9123 30.1133Z" fill="#F9F9F9"/>
<path d="M21.1936 28.7271C21.5032 28.7271 21.7543 28.4739 21.7543 28.1616V18.017C21.7543 17.7048 21.5032 17.4515 21.1936 17.4515C20.8838 17.4515 20.6328 17.7048 20.6328 18.017V28.1617C20.6328 28.474 20.8838 28.7271 21.1936 28.7271Z" fill="#F9F9F9"/>
<path d="M24.4748 27.3382C24.7844 27.3382 25.0356 27.085 25.0356 26.7728V16.628C25.0356 16.3157 24.7844 16.0625 24.4748 16.0625C24.1652 16.0625 23.9141 16.3157 23.9141 16.628V26.7728C23.9141 27.085 24.1652 27.3382 24.4748 27.3382Z" fill="#F9F9F9"/>
<path d="M27.7561 25.9506C28.0657 25.9506 28.3168 25.6974 28.3168 25.3851V15.2405C28.3168 14.9283 28.0657 14.675 27.7561 14.675C27.4464 14.675 27.1953 14.9283 27.1953 15.2405V25.3851C27.1953 25.6975 27.4463 25.9506 27.7561 25.9506Z" fill="#F9F9F9"/>
<path d="M31.0373 24.5585C31.3469 24.5585 31.5981 24.3053 31.5981 23.993V13.8483C31.5981 13.5361 31.3469 13.2828 31.0373 13.2828C30.7277 13.2828 30.4766 13.5361 30.4766 13.8483V23.993C30.4766 24.3053 30.7276 24.5585 31.0373 24.5585Z" fill="#F9F9F9"/>
<path d="M34.3186 23.1678C34.6282 23.1678 34.8793 22.9145 34.8793 22.6023V12.4577C34.8793 12.1454 34.6282 11.8922 34.3186 11.8922C34.0089 11.8922 33.7578 12.1454 33.7578 12.4577V22.6023C33.7578 22.9146 34.0089 23.1678 34.3186 23.1678Z" fill="#F9F9F9"/>
<path d="M37.6076 21.7835C37.9172 21.7835 38.1684 21.5302 38.1684 21.218V11.0733C38.1684 10.761 37.9172 10.5078 37.6076 10.5078C37.298 10.5078 37.0469 10.761 37.0469 11.0733V21.218C37.0469 21.5302 37.298 21.7835 37.6076 21.7835Z" fill="#F9F9F9"/>
</svg>
