<svg width="42" height="34" viewBox="0 0 42 34" fill="none" xmlns="http://www.w3.org/2000/svg">
<path d="M1.33879 6.66565L14.2626 1.04621C14.4035 0.985041 14.563 0.98457 14.7039 1.04498L40.6585 12.1641C40.8653 12.2527 41 12.4573 41 12.6839C41 12.6837 41 12.6841 41 12.6839V27.6385C41 27.8649 40.866 28.0695 40.6594 28.1585L27.6658 33.7533C27.6457 33.7622 27.6251 33.7697 27.6042 33.7761C27.6039 33.7761 27.6034 33.7762 27.6029 33.7764C27.5505 33.7922 27.4966 33.8 27.4428 33.8C27.4411 33.8 27.4393 33.8 27.4375 33.8C27.4369 33.7995 27.4366 33.8 27.436 33.8C27.4356 33.8 27.4351 33.8 27.4346 33.8C27.379 33.7992 27.3233 33.79 27.2694 33.7723C27.269 33.7723 27.2686 33.7718 27.2681 33.7719C27.2523 33.7666 27.2367 33.7608 27.2213 33.7541L1.34122 22.6549C1.1343 22.5662 1 22.3613 1 22.1346V7.18635C0.999535 6.96007 1.1328 6.75528 1.33879 6.66565ZM39.8785 13.541L35.2041 15.5549V29.2777L39.8785 27.2651V13.541ZM28.0035 32.3782L34.0826 29.7606V16.0381L28.0035 18.6572V32.3782ZM27.4423 17.6692L39.0086 12.686L14.4862 2.18061L2.98523 7.18135L27.4423 17.6692ZM2.12149 21.7604L26.882 32.3795V18.6579L2.12149 8.03981V21.7604Z" fill="#F9F9F9"/>
<path d="M41 12.6839C41 12.4573 40.8653 12.2527 40.6585 12.1641L14.7039 1.04498C14.563 0.98457 14.4035 0.985041 14.2626 1.04621L1.33879 6.66565C1.13281 6.75528 0.999534 6.96007 1 7.18635V22.1346C1 22.3613 1.1343 22.5662 1.34122 22.6549L27.2213 33.7541C27.2367 33.7608 27.2523 33.7666 27.2681 33.7719C27.2686 33.7718 27.269 33.7723 27.2694 33.7723C27.3233 33.79 27.379 33.7992 27.4346 33.8C27.4351 33.8 27.4356 33.8 27.436 33.8C27.4366 33.8 27.4369 33.7995 27.4375 33.8C27.4393 33.8 27.4411 33.8 27.4428 33.8C27.4966 33.8 27.5505 33.7922 27.6029 33.7764C27.6034 33.7763 27.6039 33.7761 27.6042 33.7761C27.6251 33.7697 27.6457 33.7622 27.6658 33.7534L40.6594 28.1585C40.866 28.0695 41 27.8649 41 27.6385V12.6839ZM41 12.6839C41 12.6841 41 12.6837 41 12.6839ZM39.8785 13.541L35.2041 15.5549V29.2777L39.8785 27.2651V13.541ZM28.0035 32.3782L34.0826 29.7606V16.0381L28.0035 18.6572V32.3782ZM27.4423 17.6692L39.0086 12.686L14.4862 2.18061L2.98523 7.18135L27.4423 17.6692ZM2.12149 21.7604L26.882 32.3795V18.6579L2.12149 8.03981V21.7604Z" stroke="#F9F9F9" stroke-width="0.4"/>
<path d="M32.7674 25.1034C32.4578 25.1034 32.2066 24.8502 32.2066 24.5379V21.817C32.2066 21.5048 32.4578 21.2516 32.7674 21.2516C33.077 21.2516 33.3281 21.5048 33.3281 21.817V24.5379C33.3281 24.8502 33.0771 25.1034 32.7674 25.1034Z" fill="#F9F9F9"/>
<path d="M36.5174 20.2562C36.827 20.2562 37.0781 20.5095 37.0781 20.8217V23.5428C37.0781 23.855 36.827 24.1082 36.5174 24.1082C36.2078 24.1082 35.9566 23.855 35.9566 23.5428V20.8217C35.9566 20.5095 36.2078 20.2562 36.5174 20.2562Z" fill="#F9F9F9"/>
<path d="M24.0877 30.1133C23.778 30.1133 23.5269 29.86 23.5269 29.5478V19.403C23.5269 19.0908 23.778 18.8375 24.0877 18.8375C24.3974 18.8375 24.6484 19.0908 24.6484 19.403V29.5478C24.6484 29.86 24.3974 30.1133 24.0877 30.1133Z" fill="#F9F9F9"/>
<path d="M20.8064 28.7271C20.4968 28.7271 20.2457 28.4739 20.2457 28.1616V18.017C20.2457 17.7048 20.4968 17.4515 20.8064 17.4515C21.1162 17.4515 21.3672 17.7048 21.3672 18.017V28.1617C21.3672 28.474 21.1162 28.7271 20.8064 28.7271Z" fill="#F9F9F9"/>
<path d="M17.5252 27.3382C17.2156 27.3382 16.9644 27.085 16.9644 26.7728V16.628C16.9644 16.3157 17.2156 16.0625 17.5252 16.0625C17.8348 16.0625 18.0859 16.3157 18.0859 16.628V26.7728C18.0859 27.085 17.8348 27.3382 17.5252 27.3382Z" fill="#F9F9F9"/>
<path d="M14.2439 25.9506C13.9343 25.9506 13.6832 25.6974 13.6832 25.3851V15.2405C13.6832 14.9283 13.9343 14.675 14.2439 14.675C14.5536 14.675 14.8047 14.9283 14.8047 15.2405V25.3851C14.8047 25.6975 14.5537 25.9506 14.2439 25.9506Z" fill="#F9F9F9"/>
<path d="M10.9627 24.5585C10.6531 24.5585 10.4019 24.3053 10.4019 23.993V13.8483C10.4019 13.5361 10.6531 13.2828 10.9627 13.2828C11.2723 13.2828 11.5234 13.5361 11.5234 13.8483V23.993C11.5234 24.3053 11.2724 24.5585 10.9627 24.5585Z" fill="#F9F9F9"/>
<path d="M7.68144 23.1678C7.37182 23.1678 7.1207 22.9145 7.1207 22.6023V12.4577C7.1207 12.1454 7.37182 11.8922 7.68144 11.8922C7.99107 11.8922 8.24219 12.1454 8.24219 12.4577V22.6023C8.24219 22.9146 7.99107 23.1678 7.68144 23.1678Z" fill="#F9F9F9"/>
<path d="M4.39238 21.7835C4.08275 21.7835 3.83163 21.5302 3.83163 21.218V11.0733C3.83163 10.761 4.08275 10.5078 4.39238 10.5078C4.702 10.5078 4.95312 10.761 4.95312 11.0733V21.218C4.95312 21.5302 4.702 21.7835 4.39238 21.7835Z" fill="#F9F9F9"/>
</svg>
