<svg width="42" height="34" viewBox="0 0 42 34" fill="none" xmlns="http://www.w3.org/2000/svg">
<path d="M40.6612 6.66565L27.7374 1.04621C27.5965 0.985041 27.437 0.98457 27.2961 1.04498L1.34149 12.1641C1.13467 12.2527 1 12.4573 1 12.6839C1 12.6837 1 12.6841 1 12.6839V27.6385C1 27.8649 1.13402 28.0695 1.34056 28.1585L14.3342 33.7534C14.3543 33.7622 14.3749 33.7697 14.3958 33.7761C14.3961 33.7761 14.3966 33.7763 14.3971 33.7764C14.4495 33.7922 14.5034 33.8 14.5572 33.8C14.5589 33.8 14.5607 33.8 14.5625 33.8C14.5631 33.7995 14.5634 33.8 14.564 33.8C14.5644 33.8 14.5649 33.8 14.5654 33.8C14.621 33.7992 14.6767 33.79 14.7306 33.7723C14.731 33.7723 14.7314 33.7718 14.7319 33.7719C14.7477 33.7666 14.7633 33.7608 14.7787 33.7541L40.6588 22.6549C40.8657 22.5662 41 22.3613 41 22.1346V7.18635C41.0005 6.96007 40.8672 6.75528 40.6612 6.66565ZM2.12149 13.541L6.79587 15.5549V29.2777L2.12149 27.2651V13.541ZM13.9965 32.3782L7.91737 29.7606V16.0381L13.9965 18.6572V32.3782ZM14.5577 17.6692L2.9914 12.686L27.5138 2.18061L39.0148 7.18135L14.5577 17.6692ZM39.8785 21.7604L15.118 32.3795V18.6579L39.8785 8.03981V21.7604Z" fill="#7ECC29"/>
<path d="M1 12.6839C1 12.4573 1.13467 12.2527 1.34149 12.1641L27.2961 1.04498C27.437 0.98457 27.5965 0.985041 27.7374 1.04621L40.6612 6.66565C40.8672 6.75528 41.0005 6.96007 41 7.18635V22.1346C41 22.3613 40.8657 22.5662 40.6588 22.6549L14.7787 33.7541C14.7633 33.7608 14.7477 33.7666 14.7319 33.7719C14.7314 33.7718 14.731 33.7723 14.7306 33.7723C14.6767 33.79 14.621 33.7992 14.5654 33.8C14.5649 33.8 14.5644 33.8 14.564 33.8C14.5634 33.8 14.5631 33.7995 14.5625 33.8C14.5607 33.8 14.5589 33.8 14.5572 33.8C14.5034 33.8 14.4495 33.7922 14.3971 33.7764C14.3966 33.7763 14.3961 33.7761 14.3958 33.7761C14.3749 33.7697 14.3543 33.7622 14.3342 33.7534L1.34056 28.1585C1.13402 28.0695 1 27.8649 1 27.6385V12.6839ZM1 12.6839C1 12.6841 1 12.6837 1 12.6839ZM2.12149 13.541L6.79587 15.5549V29.2777L2.12149 27.2651V13.541ZM13.9965 32.3782L7.91737 29.7606V16.0381L13.9965 18.6572V32.3782ZM14.5577 17.6692L2.9914 12.686L27.5138 2.18061L39.0148 7.18135L14.5577 17.6692ZM39.8785 21.7604L15.118 32.3795V18.6579L39.8785 8.03981V21.7604Z" stroke="#7ECC29" stroke-width="0.4"/>
<path d="M9.23653 25.1033C9.54615 25.1033 9.79727 24.8501 9.79727 24.5378V21.8169C9.79727 21.5047 9.54615 21.2515 9.23653 21.2515C8.9269 21.2515 8.67578 21.5047 8.67578 21.8169V24.5378C8.67578 24.8501 8.92681 25.1033 9.23653 25.1033Z" fill="#7ECC29"/>
<path d="M5.48018 20.2563C5.17055 20.2563 4.91943 20.5096 4.91943 20.8218V23.5429C4.91943 23.8551 5.17055 24.1084 5.48018 24.1084C5.78981 24.1084 6.04093 23.8551 6.04093 23.5429V20.8218C6.04093 20.5096 5.78981 20.2563 5.48018 20.2563Z" fill="#7ECC29"/>
<path d="M17.9138 30.1131C18.2235 30.1131 18.4745 29.8599 18.4745 29.5477V19.4029C18.4745 19.0906 18.2235 18.8374 17.9138 18.8374C17.6041 18.8374 17.353 19.0906 17.353 19.4029V29.5477C17.353 29.8599 17.6041 30.1131 17.9138 30.1131Z" fill="#7ECC29"/>
<path d="M21.1943 28.7272C21.5039 28.7272 21.755 28.474 21.755 28.1618V18.0171C21.755 17.7049 21.5039 17.4517 21.1943 17.4517C20.8846 17.4517 20.6335 17.7049 20.6335 18.0171V28.1618C20.6335 28.4741 20.8846 28.7272 21.1943 28.7272Z" fill="#7ECC29"/>
<path d="M24.4763 27.3382C24.7859 27.3382 25.037 27.085 25.037 26.7728V16.628C25.037 16.3157 24.7859 16.0625 24.4763 16.0625C24.1666 16.0625 23.9155 16.3157 23.9155 16.628V26.7728C23.9155 27.085 24.1666 27.3382 24.4763 27.3382Z" fill="#7ECC29"/>
<path d="M27.7568 25.9506C28.0664 25.9506 28.3175 25.6974 28.3175 25.3851V15.2405C28.3175 14.9283 28.0664 14.675 27.7568 14.675C27.4472 14.675 27.196 14.9283 27.196 15.2405V25.3851C27.196 25.6975 27.4471 25.9506 27.7568 25.9506Z" fill="#7ECC29"/>
<path d="M31.0396 24.5584C31.3493 24.5584 31.6004 24.3051 31.6004 23.9929V13.8482C31.6004 13.5359 31.3493 13.2827 31.0396 13.2827C30.73 13.2827 30.4789 13.5359 30.4789 13.8482V23.9929C30.4789 24.3051 30.7299 24.5584 31.0396 24.5584Z" fill="#7ECC29"/>
<path d="M34.3217 23.1676C34.6314 23.1676 34.8825 22.9144 34.8825 22.6022V12.4576C34.8825 12.1453 34.6314 11.8921 34.3217 11.8921C34.0121 11.8921 33.761 12.1453 33.761 12.4576V22.6022C33.761 22.9145 34.0121 23.1676 34.3217 23.1676Z" fill="#7ECC29"/>
<path d="M37.606 21.7835C37.9157 21.7835 38.1668 21.5302 38.1668 21.218V11.0733C38.1668 10.761 37.9157 10.5078 37.606 10.5078C37.2964 10.5078 37.0453 10.761 37.0453 11.0733V21.218C37.0453 21.5302 37.2964 21.7835 37.606 21.7835Z" fill="#7ECC29"/>
</svg>
