<svg width="32" height="32" viewBox="0 0 32 32" fill="none" xmlns="http://www.w3.org/2000/svg">
<path d="M31.1111 0H0.888889C0.398222 0 0 0.341642 0 0.762595V29.048V31.2374C0 31.6591 0.398222 32 0.888889 32H3.59111C3.88533 32 4.16 31.8757 4.32533 31.6667L5.80267 29.8098H26.1973L27.6756 31.6675C27.8418 31.8749 28.1164 32 28.4098 32H31.1111C31.6027 32 32 31.6591 32 31.2374V29.048V0.762595C32 0.34088 31.6027 0 31.1111 0ZM30.2222 1.52519V4.18741C30.0862 4.11496 29.9351 4.06158 29.7618 4.06158H27.056C26.5645 4.06158 26.1671 4.40322 26.1671 4.82418V24.2238H24.3502C23.8587 24.2238 23.4613 24.5647 23.4613 24.9864C23.4613 25.4081 23.8587 25.749 24.3502 25.749H27.056C27.5476 25.749 27.9449 25.4081 27.9449 24.9864V5.58677H29.7618C29.9342 5.58677 30.0853 5.53339 30.2222 5.46094V28.2854H26.6667H5.33333H1.77778V25.6232C1.91378 25.6964 2.06578 25.749 2.23822 25.749H4.944C5.43467 25.749 5.83289 25.4081 5.83289 24.9864V5.58677H7.64978C8.14045 5.58677 8.53867 5.24513 8.53867 4.82418C8.53867 4.40322 8.14045 4.06158 7.64978 4.06158H4.944C4.45333 4.06158 4.05511 4.40322 4.05511 4.82418V24.2238H2.23822C2.06578 24.2238 1.91467 24.2764 1.77778 24.3496V1.52519H30.2222Z" fill="#7ECC29"/>
<path d="M18.472 24.2223C17.9814 24.2223 17.5832 24.5632 17.5832 24.9849C17.5832 25.4066 17.9814 25.7475 18.472 25.7475H21.1778C21.6685 25.7475 22.0667 25.4066 22.0667 24.9849V5.58525H23.8836C24.3743 5.58525 24.7725 5.24361 24.7725 4.82265C24.7725 4.4017 24.3743 4.06006 23.8836 4.06006H21.1778C20.6872 4.06006 20.2889 4.4017 20.2889 4.82265V24.2223H18.472Z" fill="#7ECC29"/>
<path d="M7.64889 24.2223C7.15822 24.2223 6.76 24.5632 6.76 24.9849C6.76 25.4066 7.15822 25.7475 7.64889 25.7475H10.3547C10.8453 25.7475 11.2436 25.4066 11.2436 24.9849V5.58525H13.0604C13.5511 5.58525 13.9493 5.24361 13.9493 4.82265C13.9493 4.4017 13.5511 4.06006 13.0604 4.06006H10.3547C9.864 4.06006 9.46578 4.4017 9.46578 4.82265V24.2223H7.64889Z" fill="#7ECC29"/>
<path d="M13.0614 24.2223C12.5707 24.2223 12.1725 24.5632 12.1725 24.9849C12.1725 25.4066 12.5707 25.7475 13.0614 25.7475H15.7663C16.2569 25.7475 16.6552 25.4066 16.6552 24.9849V5.58525H18.4721C18.9627 5.58525 19.3609 5.24361 19.3609 4.82265C19.3609 4.4017 18.9627 4.06006 18.4721 4.06006H15.7663C15.2756 4.06006 14.8774 4.4017 14.8774 4.82265V24.2223H13.0614Z" fill="#7ECC29"/>
</svg>
