<svg width="42" height="34" viewBox="0 0 42 34" fill="none" xmlns="http://www.w3.org/2000/svg">
<path d="M1.33879 6.66565L14.2626 1.04621C14.4035 0.985041 14.563 0.98457 14.7039 1.04498L40.6585 12.1641C40.8653 12.2527 41 12.4573 41 12.6839C41 12.6837 41 12.6841 41 12.6839V27.6385C41 27.8649 40.866 28.0695 40.6594 28.1585L27.6658 33.7534C27.6457 33.7622 27.6251 33.7697 27.6042 33.7761C27.6039 33.7761 27.6034 33.7763 27.6029 33.7764C27.5505 33.7922 27.4966 33.8 27.4428 33.8C27.4411 33.8 27.4393 33.8 27.4375 33.8C27.4369 33.7995 27.4366 33.8 27.436 33.8C27.4356 33.8 27.4351 33.8 27.4346 33.8C27.379 33.7992 27.3233 33.79 27.2694 33.7723C27.269 33.7723 27.2686 33.7718 27.2681 33.7719C27.2523 33.7666 27.2367 33.7608 27.2213 33.7541L1.34122 22.6549C1.1343 22.5662 1 22.3613 1 22.1346V7.18635C0.999534 6.96007 1.13281 6.75528 1.33879 6.66565ZM39.8785 13.541L35.2041 15.5549V29.2777L39.8785 27.2651V13.541ZM28.0035 32.3782L34.0826 29.7606V16.0381L28.0035 18.6572V32.3782ZM27.4423 17.6692L39.0086 12.686L14.4862 2.18061L2.98523 7.18135L27.4423 17.6692ZM2.12149 21.7604L26.882 32.3795V18.6579L2.12149 8.03981V21.7604Z" fill="#7ECC29"/>
<path d="M41 12.6839C41 12.4573 40.8653 12.2527 40.6585 12.1641L14.7039 1.04498C14.563 0.98457 14.4035 0.985041 14.2626 1.04621L1.33879 6.66565C1.13281 6.75528 0.999534 6.96007 1 7.18635V22.1346C1 22.3613 1.1343 22.5662 1.34122 22.6549L27.2213 33.7541C27.2367 33.7608 27.2523 33.7666 27.2681 33.7719C27.2686 33.7718 27.269 33.7723 27.2694 33.7723C27.3233 33.79 27.379 33.7992 27.4346 33.8C27.4351 33.8 27.4356 33.8 27.436 33.8C27.4366 33.8 27.4369 33.7995 27.4375 33.8C27.4393 33.8 27.4411 33.8 27.4428 33.8C27.4966 33.8 27.5505 33.7922 27.6029 33.7764C27.6034 33.7763 27.6039 33.7761 27.6042 33.7761C27.6251 33.7697 27.6457 33.7622 27.6658 33.7534L40.6594 28.1585C40.866 28.0695 41 27.8649 41 27.6385V12.6839ZM41 12.6839C41 12.6841 41 12.6837 41 12.6839ZM39.8785 13.541L35.2041 15.5549V29.2777L39.8785 27.2651V13.541ZM28.0035 32.3782L34.0826 29.7606V16.0381L28.0035 18.6572V32.3782ZM27.4423 17.6692L39.0086 12.686L14.4862 2.18061L2.98523 7.18135L27.4423 17.6692ZM2.12149 21.7604L26.882 32.3795V18.6579L2.12149 8.03981V21.7604Z" stroke="#7ECC29" stroke-width="0.4"/>
<path d="M32.7635 25.1033C32.4538 25.1033 32.2027 24.8501 32.2027 24.5378V21.8169C32.2027 21.5047 32.4538 21.2515 32.7635 21.2515C33.0731 21.2515 33.3242 21.5047 33.3242 21.8169V24.5378C33.3242 24.8501 33.0732 25.1033 32.7635 25.1033Z" fill="#7ECC29"/>
<path d="M36.5197 20.2563C36.8293 20.2563 37.0804 20.5096 37.0804 20.8218V23.5429C37.0804 23.8551 36.8293 24.1084 36.5197 24.1084C36.2101 24.1084 35.959 23.8551 35.959 23.5429V20.8218C35.959 20.5096 36.2101 20.2563 36.5197 20.2563Z" fill="#7ECC29"/>
<path d="M24.0862 30.1131C23.7765 30.1131 23.5255 29.8599 23.5255 29.5477V19.4029C23.5255 19.0906 23.7765 18.8374 24.0862 18.8374C24.3959 18.8374 24.647 19.0906 24.647 19.4029V29.5477C24.647 29.8599 24.3959 30.1131 24.0862 30.1131Z" fill="#7ECC29"/>
<path d="M20.8057 28.7272C20.4961 28.7272 20.245 28.474 20.245 28.1618V18.0171C20.245 17.7049 20.4961 17.4517 20.8057 17.4517C21.1154 17.4517 21.3665 17.7049 21.3665 18.0171V28.1618C21.3665 28.4741 21.1154 28.7272 20.8057 28.7272Z" fill="#7ECC29"/>
<path d="M17.5237 27.3382C17.2141 27.3382 16.963 27.085 16.963 26.7728V16.628C16.963 16.3157 17.2141 16.0625 17.5237 16.0625C17.8334 16.0625 18.0845 16.3157 18.0845 16.628V26.7728C18.0845 27.085 17.8334 27.3382 17.5237 27.3382Z" fill="#7ECC29"/>
<path d="M14.2432 25.9506C13.9336 25.9506 13.6825 25.6974 13.6825 25.3851V15.2405C13.6825 14.9283 13.9336 14.675 14.2432 14.675C14.5528 14.675 14.804 14.9283 14.804 15.2405V25.3851C14.804 25.6975 14.5529 25.9506 14.2432 25.9506Z" fill="#7ECC29"/>
<path d="M10.9602 24.5584C10.6506 24.5584 10.3995 24.3051 10.3995 23.9929V13.8482C10.3995 13.5359 10.6506 13.2827 10.9602 13.2827C11.2699 13.2827 11.521 13.5359 11.521 13.8482V23.9929C11.521 24.3051 11.27 24.5584 10.9602 24.5584Z" fill="#7ECC29"/>
<path d="M7.67827 23.1676C7.36864 23.1676 7.11752 22.9144 7.11752 22.6022V12.4576C7.11752 12.1453 7.36864 11.8921 7.67827 11.8921C7.98789 11.8921 8.23901 12.1453 8.23901 12.4576V22.6022C8.23901 22.9145 7.98789 23.1676 7.67827 23.1676Z" fill="#7ECC29"/>
<path d="M4.39384 21.7835C4.08422 21.7835 3.8331 21.5302 3.8331 21.218V11.0733C3.8331 10.761 4.08422 10.5078 4.39384 10.5078C4.70347 10.5078 4.95459 10.761 4.95459 11.0733V21.218C4.95459 21.5302 4.70347 21.7835 4.39384 21.7835Z" fill="#7ECC29"/>
</svg>
