<svg width="40" height="20" viewBox="0 0 40 20" fill="none" xmlns="http://www.w3.org/2000/svg">
<path d="M39.4444 0H0.555556C0.248889 0 0 0.213526 0 0.476622V18.155V19.5234C0 19.7869 0.248889 20 0.555556 20H2.24445C2.42833 20 2.6 19.9223 2.70333 19.7917L3.62667 18.6311H36.3733L37.2972 19.7922C37.4011 19.9218 37.5728 20 37.7561 20H39.4444C39.7517 20 40 19.7869 40 19.5234V18.155V0.476622C40 0.21305 39.7517 0 39.4444 0ZM38.8889 0.953243V2.61713C38.8039 2.57185 38.7094 2.53849 38.6011 2.53849H36.91C36.6028 2.53849 36.3544 2.75201 36.3544 3.01511V15.1399H35.2189C34.9117 15.1399 34.6633 15.3529 34.6633 15.6165C34.6633 15.8801 34.9117 16.0931 35.2189 16.0931H36.91C37.2172 16.0931 37.4656 15.8801 37.4656 15.6165V3.49173H38.6011C38.7089 3.49173 38.8033 3.45837 38.8889 3.41309V17.6784H36.6667H3.33333H1.11111V16.0145C1.19611 16.0602 1.29111 16.0931 1.39889 16.0931H3.09C3.39667 16.0931 3.64556 15.8801 3.64556 15.6165V3.49173H4.78111C5.08778 3.49173 5.33667 3.2782 5.33667 3.01511C5.33667 2.75201 5.08778 2.53849 4.78111 2.53849H3.09C2.78333 2.53849 2.53444 2.75201 2.53444 3.01511V15.1399H1.39889C1.29111 15.1399 1.19667 15.1728 1.11111 15.2185V0.953243H38.8889Z" fill="#7ECC29"/>
<path d="M21.6908 15.139C21.3836 15.139 21.1353 15.352 21.1353 15.6156C21.1353 15.8792 21.3836 16.0922 21.6908 16.0922H23.3819C23.6891 16.0922 23.9375 15.8792 23.9375 15.6156V3.49084H25.073C25.3803 3.49084 25.6286 3.27731 25.6286 3.01422C25.6286 2.75112 25.3803 2.5376 25.073 2.5376H23.3819C23.0747 2.5376 22.8264 2.75112 22.8264 3.01422V15.139H21.6908Z" fill="#7ECC29"/>
<path d="M14.9274 15.139C14.6207 15.139 14.3718 15.352 14.3718 15.6156C14.3718 15.8792 14.6207 16.0922 14.9274 16.0922H16.6179C16.9246 16.0922 17.1735 15.8792 17.1735 15.6156V3.49084H18.309C18.6157 3.49084 18.8646 3.27731 18.8646 3.01422C18.8646 2.75112 18.6157 2.5376 18.309 2.5376H16.6179C16.3113 2.5376 16.0624 2.75112 16.0624 3.01422V15.139H14.9274Z" fill="#7ECC29"/>
<path d="M18.3082 15.139C18.0016 15.139 17.7527 15.352 17.7527 15.6156C17.7527 15.8792 18.0016 16.0922 18.3082 16.0922H19.9994C20.306 16.0922 20.5549 15.8792 20.5549 15.6156V3.49084H21.6905C21.9977 3.49084 22.246 3.27731 22.246 3.01422C22.246 2.75112 21.9977 2.5376 21.6905 2.5376H19.9994C19.6927 2.5376 19.4438 2.75112 19.4438 3.01422V15.139H18.3082Z" fill="#7ECC29"/>
<path d="M31.8375 15.139C31.5303 15.139 31.282 15.352 31.282 15.6156C31.282 15.8792 31.5303 16.0922 31.8375 16.0922H33.5286C33.8359 16.0922 34.0842 15.8792 34.0842 15.6156V3.49084H35.2198C35.527 3.49084 35.7753 3.27731 35.7753 3.01422C35.7753 2.75112 35.527 2.5376 35.2198 2.5376H33.5286C33.2214 2.5376 32.9731 2.75112 32.9731 3.01422V15.139H31.8375Z" fill="#7ECC29"/>
<path d="M25.0731 15.139C24.7659 15.139 24.5176 15.352 24.5176 15.6156C24.5176 15.8792 24.7659 16.0922 25.0731 16.0922H26.7642C27.0715 16.0922 27.3198 15.8792 27.3198 15.6156V3.49084H28.4548C28.762 3.49084 29.0104 3.27731 29.0104 3.01422C29.0104 2.75112 28.762 2.5376 28.4548 2.5376H26.7642C26.457 2.5376 26.2087 2.75112 26.2087 3.01422V15.139H25.0731Z" fill="#7ECC29"/>
<path d="M28.4547 15.139C28.1475 15.139 27.8992 15.352 27.8992 15.6156C27.8992 15.8792 28.1475 16.0922 28.4547 16.0922H30.1458C30.4531 16.0922 30.7014 15.8792 30.7014 15.6156V3.49084H31.8369C32.1442 3.49084 32.3925 3.27731 32.3925 3.01422C32.3925 2.75112 32.1442 2.5376 31.8369 2.5376H30.1458C29.8386 2.5376 29.5903 2.75112 29.5903 3.01422V15.139H28.4547Z" fill="#7ECC29"/>
<path d="M11.5451 15.139C11.2384 15.139 10.9895 15.352 10.9895 15.6156C10.9895 15.8792 11.2384 16.0922 11.5451 16.0922H13.2362C13.5428 16.0922 13.7917 15.8792 13.7917 15.6156V3.49084H14.9273C15.2339 3.49084 15.4828 3.27731 15.4828 3.01422C15.4828 2.75112 15.2339 2.5376 14.9273 2.5376H13.2362C12.9295 2.5376 12.6806 2.75112 12.6806 3.01422V15.139H11.5451Z" fill="#7ECC29"/>
<path d="M4.78065 15.139C4.47399 15.139 4.2251 15.352 4.2251 15.6156C4.2251 15.8792 4.47399 16.0922 4.78065 16.0922H6.47176C6.77843 16.0922 7.02732 15.8792 7.02732 15.6156V3.49084H8.16288C8.46954 3.49084 8.71843 3.27731 8.71843 3.01422C8.71843 2.75112 8.46954 2.5376 8.16288 2.5376H6.47176C6.1651 2.5376 5.91621 2.75112 5.91621 3.01422V15.139H4.78065Z" fill="#7ECC29"/>
<path d="M8.16347 15.139C7.8568 15.139 7.60791 15.352 7.60791 15.6156C7.60791 15.8792 7.8568 16.0922 8.16347 16.0922H9.85402C10.1607 16.0922 10.4096 15.8792 10.4096 15.6156V3.49084H11.5451C11.8518 3.49084 12.1007 3.27731 12.1007 3.01422C12.1007 2.75112 11.8518 2.5376 11.5451 2.5376H9.85402C9.54735 2.5376 9.29847 2.75112 9.29847 3.01422V15.139H8.16347Z" fill="#7ECC29"/>
<circle cx="32.6" cy="6.6" r="5.6" fill="#19242F"/>
<path d="M30.5689 10V3.45455H33.1513C33.6456 3.45455 34.0675 3.54297 34.4169 3.71982C34.7685 3.89453 35.0359 4.14276 35.2191 4.46449C35.4045 4.78409 35.4972 5.16016 35.4972 5.59268C35.4972 6.02734 35.4034 6.40128 35.2159 6.71449C35.0284 7.02557 34.7567 7.2642 34.4009 7.4304C34.0472 7.59659 33.619 7.67969 33.1161 7.67969H31.3871V6.56747H32.8924C33.1566 6.56747 33.3761 6.53125 33.5508 6.45881C33.7255 6.38636 33.8555 6.2777 33.9407 6.13281C34.0281 5.98793 34.0717 5.80788 34.0717 5.59268C34.0717 5.37535 34.0281 5.19212 33.9407 5.04297C33.8555 4.89382 33.7244 4.78089 33.5476 4.70419C33.3729 4.62536 33.1523 4.58594 32.886 4.58594H31.9528V10H30.5689ZM34.1037 7.02131L35.7305 10H34.2028L32.6112 7.02131H34.1037Z" fill="#7ECC29"/>
</svg>
