<svg width="44" height="22" viewBox="0 0 44 22" fill="none" xmlns="http://www.w3.org/2000/svg">
<path d="M18.9349 17.8147C18.6885 17.8147 18.4893 18.07 18.4893 18.3859C18.4893 18.7018 18.6885 18.9572 18.9349 18.9572H20.2915C20.538 18.9572 20.7372 18.7018 20.7372 18.3859V3.85347H21.6481C21.8946 3.85347 22.0938 3.59754 22.0938 3.2822C22.0938 2.96687 21.8946 2.71094 21.6481 2.71094H20.2915C20.0451 2.71094 19.8459 2.96687 19.8459 3.2822V17.8147H18.9349Z" fill="#7ECC29"/>
<path d="M13.1676 17.8147C12.9216 17.8147 12.7219 18.07 12.7219 18.3859C12.7219 18.7018 12.9216 18.9572 13.1676 18.9572H14.524C14.77 18.9572 14.9697 18.7018 14.9697 18.3859V3.85347H15.8807C16.1268 3.85347 16.3265 3.59754 16.3265 3.2822C16.3265 2.96687 16.1268 2.71094 15.8807 2.71094H14.524C14.2779 2.71094 14.0782 2.96687 14.0782 3.2822V17.8147H13.1676Z" fill="#7ECC29"/>
<path d="M16.0506 17.8147C15.8046 17.8147 15.605 18.07 15.605 18.3859C15.605 18.7018 15.8046 18.9572 16.0506 18.9572H17.4072C17.6533 18.9572 17.8529 18.7018 17.8529 18.3859V3.85347H18.7638C19.0103 3.85347 19.2095 3.59754 19.2095 3.2822C19.2095 2.96687 19.0103 2.71094 18.7638 2.71094H17.4072C17.1612 2.71094 16.9616 2.96687 16.9616 3.2822V17.8147H16.0506Z" fill="#7ECC29"/>
<path d="M27.5856 17.8147C27.3391 17.8147 27.1399 18.07 27.1399 18.3859C27.1399 18.7018 27.3391 18.9572 27.5856 18.9572H28.9422C29.1886 18.9572 29.3878 18.7018 29.3878 18.3859V3.85347H30.2988C30.5452 3.85347 30.7444 3.59754 30.7444 3.2822C30.7444 2.96687 30.5452 2.71094 30.2988 2.71094H28.9422C28.6957 2.71094 28.4965 2.96687 28.4965 3.2822V17.8147H27.5856Z" fill="#7ECC29"/>
<path d="M36.2359 17.8147C35.9895 17.8147 35.7903 18.07 35.7903 18.3859C35.7903 18.7018 35.9895 18.9572 36.2359 18.9572H37.5925C37.839 18.9572 38.0382 18.7018 38.0382 18.3859V3.85347H38.9492C39.1956 3.85347 39.3948 3.59754 39.3948 3.2822C39.3948 2.96687 39.1956 2.71094 38.9492 2.71094H37.5925C37.3461 2.71094 37.1469 2.96687 37.1469 3.2822V17.8147H36.2359Z" fill="#7ECC29"/>
<path d="M21.818 17.8147C21.5716 17.8147 21.3723 18.07 21.3723 18.3859C21.3723 18.7018 21.5716 18.9572 21.818 18.9572H23.1748C23.4213 18.9572 23.6205 18.7018 23.6205 18.3859V3.85347H24.5311C24.7776 3.85347 24.9768 3.59754 24.9768 3.2822C24.9768 2.96687 24.7776 2.71094 24.5311 2.71094H23.1748C22.9283 2.71094 22.7291 2.96687 22.7291 3.2822V17.8147H21.818Z" fill="#7ECC29"/>
<path d="M30.4692 17.8147C30.2227 17.8147 30.0234 18.07 30.0234 18.3859C30.0234 18.7018 30.2227 18.9572 30.4692 18.9572H31.8259C32.0724 18.9572 32.2716 18.7018 32.2716 18.3859V3.85347H33.1822C33.4287 3.85347 33.628 3.59754 33.628 3.2822C33.628 2.96687 33.4287 2.71094 33.1822 2.71094H31.8259C31.5794 2.71094 31.3802 2.96687 31.3802 3.2822V17.8147H30.4692Z" fill="#7ECC29"/>
<path d="M24.702 17.8147C24.4556 17.8147 24.2563 18.07 24.2563 18.3859C24.2563 18.7018 24.4556 18.9572 24.702 18.9572H26.0586C26.3051 18.9572 26.5043 18.7018 26.5043 18.3859V3.85347H27.4152C27.6617 3.85347 27.8609 3.59754 27.8609 3.2822C27.8609 2.96687 27.6617 2.71094 27.4152 2.71094H26.0586C25.8122 2.71094 25.6129 2.96687 25.6129 3.2822V17.8147H24.702Z" fill="#7ECC29"/>
<path d="M33.3528 17.8147C33.1063 17.8147 32.9071 18.07 32.9071 18.3859C32.9071 18.7018 33.1063 18.9572 33.3528 18.9572H34.7094C34.9558 18.9572 35.155 18.7018 35.155 18.3859V3.85347H36.066C36.3124 3.85347 36.5116 3.59754 36.5116 3.2822C36.5116 2.96687 36.3124 2.71094 36.066 2.71094H34.7094C34.4629 2.71094 34.2637 2.96687 34.2637 3.2822V17.8147H33.3528Z" fill="#7ECC29"/>
<path d="M10.2836 17.8147C10.0375 17.8147 9.83789 18.07 9.83789 18.3859C9.83789 18.7018 10.0375 18.9572 10.2836 18.9572H11.6402C11.8862 18.9572 12.0858 18.7018 12.0858 18.3859V3.85347H12.9968C13.2428 3.85347 13.4424 3.59754 13.4424 3.2822C13.4424 2.96687 13.2428 2.71094 12.9968 2.71094H11.6402C11.3942 2.71094 11.1945 2.96687 11.1945 3.2822V17.8147H10.2836Z" fill="#7ECC29"/>
<path d="M4.51695 17.8147C4.27095 17.8147 4.07129 18.07 4.07129 18.3859C4.07129 18.7018 4.27095 18.9572 4.51695 18.9572H5.87355C6.11956 18.9572 6.31922 18.7018 6.31922 18.3859V3.85347H7.23016C7.47616 3.85347 7.67582 3.59754 7.67582 3.2822C7.67582 2.96687 7.47616 2.71094 7.23016 2.71094H5.87355C5.62755 2.71094 5.42789 2.96687 5.42789 3.2822V17.8147H4.51695Z" fill="#7ECC29"/>
<path d="M7.40007 17.8147C7.15403 17.8147 6.95435 18.07 6.95435 18.3859C6.95435 18.7018 7.15403 18.9572 7.40007 18.9572H8.75639C9.00243 18.9572 9.20211 18.7018 9.20211 18.3859V3.85347H10.1132C10.3592 3.85347 10.5589 3.59754 10.5589 3.2822C10.5589 2.96687 10.3592 2.71094 10.1132 2.71094H8.75639C8.51035 2.71094 8.31067 2.96687 8.31067 3.2822V17.8147H7.40007Z" fill="#7ECC29"/>
<path d="M42.5458 4.08679C42.6055 4.08679 42.6645 4.07285 42.7196 4.04578C42.7747 4.01871 42.8248 3.97903 42.867 3.92901C42.9091 3.87899 42.9426 3.8196 42.9654 3.75424C42.9883 3.68889 43 3.61884 43 3.5481V1.53869C43 1.39582 42.9521 1.2588 42.867 1.15778C42.7818 1.05675 42.6663 1 42.5458 1H1.45417C1.33372 1 1.2182 1.05675 1.13302 1.15778C1.04785 1.2588 1 1.39582 1 1.53869V3.5481C1 3.61884 1.01175 3.68889 1.03457 3.75424C1.0574 3.8196 1.09085 3.87899 1.13302 3.92901C1.1752 3.97903 1.22526 4.01871 1.28037 4.04578C1.33547 4.07285 1.39453 4.08679 1.45417 4.08679H2.17508V17.8961H1.45417C1.33372 17.8961 1.2182 17.9529 1.13302 18.0539C1.04785 18.1549 1 18.2919 1 18.4348V20.4613C1 20.6042 1.04785 20.7412 1.13302 20.8422C1.2182 20.9432 1.33372 21 1.45417 21H42.5458C42.6663 21 42.7818 20.9432 42.867 20.8422C42.9521 20.7412 43 20.6042 43 20.4613V18.4091C42.9944 18.2708 42.9441 18.1403 42.8596 18.0447C42.775 17.9492 42.6626 17.896 42.5458 17.8961H41.8249V4.08679H42.5458ZM2.69413 19.7516C2.69415 19.859 2.65868 19.9621 2.59534 20.0388C2.532 20.1156 2.44582 20.1598 2.3553 20.162H1.81462C1.72343 20.1598 1.63648 20.1159 1.57198 20.0394C1.50748 19.9629 1.47043 19.8598 1.46859 19.7516V19.0761C1.47048 18.9687 1.50776 18.8665 1.57245 18.7914C1.63715 18.7163 1.72409 18.6742 1.81462 18.6742H2.38414C2.474 18.6742 2.56018 18.7166 2.62373 18.7919C2.68727 18.8673 2.72297 18.9695 2.72297 19.0761L2.69413 19.7516ZM2.69413 2.88114C2.69413 2.98773 2.65843 3.08995 2.59489 3.16532C2.53135 3.24068 2.44517 3.28303 2.3553 3.28303H1.81462C1.72409 3.28305 1.63715 3.24098 1.57245 3.16585C1.50776 3.09072 1.47048 2.98851 1.46859 2.88114V2.20564C1.47048 2.09828 1.50776 1.99607 1.57245 1.92094C1.63715 1.8458 1.72409 1.80374 1.81462 1.80376H2.38414C2.474 1.80376 2.56018 1.8461 2.62373 1.92147C2.68727 1.99684 2.72297 2.09906 2.72297 2.20564L2.69413 2.88114ZM42.1926 18.6486C42.2831 18.6485 42.3701 18.6906 42.4348 18.7657C42.4994 18.8409 42.5367 18.9431 42.5386 19.0504V19.726C42.5368 19.8341 42.4997 19.9372 42.4352 20.0138C42.3707 20.0903 42.2838 20.1342 42.1926 20.1364H41.6231C41.5326 20.1341 41.4464 20.0899 41.383 20.0132C41.3197 19.9365 41.2842 19.8333 41.2842 19.726V19.0504C41.2842 18.9439 41.3199 18.8416 41.3835 18.7663C41.447 18.6909 41.5332 18.6486 41.6231 18.6486H42.1926ZM41.6231 3.25737C41.5332 3.25737 41.447 3.21503 41.3835 3.13967C41.3199 3.0643 41.2842 2.96208 41.2842 2.85549V2.17999C41.2842 2.0734 41.3199 1.97118 41.3835 1.89582C41.447 1.82045 41.5332 1.77811 41.6231 1.77811H42.1854C42.2759 1.77809 42.3629 1.82015 42.4275 1.89528C42.4922 1.97041 42.5295 2.07262 42.5314 2.17999V2.85549C42.5295 2.96286 42.4922 3.06507 42.4275 3.1402C42.3629 3.21533 42.2759 3.2574 42.1854 3.25737H41.6231Z" stroke="#7ECC29" stroke-width="1.5"/>
</svg>
