<svg width="40" height="20" viewBox="0 0 40 20" fill="none" xmlns="http://www.w3.org/2000/svg">
<path d="M39.4444 0H0.555556C0.248889 0 0 0.213527 0 0.476622V18.155V19.5234C0 19.7869 0.248889 20 0.555556 20H2.24445C2.42833 20 2.6 19.9223 2.70333 19.7917L3.62667 18.6311H36.3733L37.2972 19.7922C37.4011 19.9218 37.5728 20 37.7561 20H39.4444C39.7517 20 40 19.7869 40 19.5234V18.155V0.476622C40 0.21305 39.7517 0 39.4444 0ZM38.8889 0.953243V2.61713C38.8039 2.57185 38.7094 2.53849 38.6011 2.53849H36.91C36.6028 2.53849 36.3544 2.75201 36.3544 3.01511V15.1399H35.2189C34.9117 15.1399 34.6633 15.3529 34.6633 15.6165C34.6633 15.8801 34.9117 16.0931 35.2189 16.0931H36.91C37.2172 16.0931 37.4656 15.8801 37.4656 15.6165V3.49173H38.6011C38.7089 3.49173 38.8033 3.45837 38.8889 3.41309V17.6784H36.6667H3.33333H1.11111V16.0145C1.19611 16.0602 1.29111 16.0931 1.39889 16.0931H3.09C3.39667 16.0931 3.64556 15.8801 3.64556 15.6165V3.49173H4.78111C5.08778 3.49173 5.33667 3.2782 5.33667 3.01511C5.33667 2.75201 5.08778 2.53849 4.78111 2.53849H3.09C2.78333 2.53849 2.53444 2.75201 2.53444 3.01511V15.1399H1.39889C1.29111 15.1399 1.19667 15.1728 1.11111 15.2185V0.953243H38.8889Z" fill="#F9F9F9"/>
<path d="M21.6884 15.1389C21.3811 15.1389 21.1328 15.3519 21.1328 15.6155C21.1328 15.8791 21.3811 16.0921 21.6884 16.0921H23.3795C23.6867 16.0921 23.935 15.8791 23.935 15.6155V3.49072H25.0706C25.3778 3.49072 25.6261 3.27719 25.6261 3.0141C25.6261 2.751 25.3778 2.53748 25.0706 2.53748H23.3795C23.0723 2.53748 22.8239 2.751 22.8239 3.0141V15.1389H21.6884Z" fill="#F9F9F9"/>
<path d="M14.9306 15.1389C14.6239 15.1389 14.375 15.3519 14.375 15.6155C14.375 15.8791 14.6239 16.0921 14.9306 16.0921H16.6211C16.9278 16.0921 17.1767 15.8791 17.1767 15.6155V3.49072H18.3122C18.6189 3.49072 18.8678 3.27719 18.8678 3.0141C18.8678 2.751 18.6189 2.53748 18.3122 2.53748H16.6211C16.3144 2.53748 16.0656 2.751 16.0656 3.0141V15.1389H14.9306Z" fill="#F9F9F9"/>
<path d="M18.3056 15.1389C17.9989 15.1389 17.75 15.3519 17.75 15.6155C17.75 15.8791 17.9989 16.0921 18.3056 16.0921H19.9967C20.3033 16.0921 20.5522 15.8791 20.5522 15.6155V3.49072H21.6878C21.995 3.49072 22.2433 3.27719 22.2433 3.0141C22.2433 2.751 21.995 2.53748 21.6878 2.53748H19.9967C19.69 2.53748 19.4411 2.751 19.4411 3.0141V15.1389H18.3056Z" fill="#F9F9F9"/>
<path d="M31.8368 15.1389C31.5296 15.1389 31.2812 15.3519 31.2812 15.6155C31.2812 15.8791 31.5296 16.0921 31.8368 16.0921H33.5279C33.8351 16.0921 34.0835 15.8791 34.0835 15.6155V3.49072H35.219C35.5262 3.49072 35.7746 3.27719 35.7746 3.0141C35.7746 2.751 35.5262 2.53748 35.219 2.53748H33.5279C33.2207 2.53748 32.9724 2.751 32.9724 3.0141V15.1389H31.8368Z" fill="#F9F9F9"/>
<path d="M25.0712 15.1389C24.764 15.1389 24.5156 15.3519 24.5156 15.6155C24.5156 15.8791 24.764 16.0921 25.0712 16.0921H26.7623C27.0695 16.0921 27.3178 15.8791 27.3178 15.6155V3.49072H28.4528C28.7601 3.49072 29.0084 3.27719 29.0084 3.0141C29.0084 2.751 28.7601 2.53748 28.4528 2.53748H26.7623C26.4551 2.53748 26.2067 2.751 26.2067 3.0141V15.1389H25.0712Z" fill="#F9F9F9"/>
<path d="M28.454 15.1389C28.1468 15.1389 27.8984 15.3519 27.8984 15.6155C27.8984 15.8791 28.1468 16.0921 28.454 16.0921H30.1451C30.4523 16.0921 30.7007 15.8791 30.7007 15.6155V3.49072H31.8362C32.1434 3.49072 32.3918 3.27719 32.3918 3.0141C32.3918 2.751 32.1434 2.53748 31.8362 2.53748H30.1451C29.8379 2.53748 29.5895 2.751 29.5895 3.0141V15.1389H28.454Z" fill="#F9F9F9"/>
<path d="M11.5477 15.1389C11.2411 15.1389 10.9922 15.3519 10.9922 15.6155C10.9922 15.8791 11.2411 16.0921 11.5477 16.0921H13.2389C13.5455 16.0921 13.7944 15.8791 13.7944 15.6155V3.49072H14.93C15.2366 3.49072 15.4855 3.27719 15.4855 3.0141C15.4855 2.751 15.2366 2.53748 14.93 2.53748H13.2389C12.9322 2.53748 12.6833 2.751 12.6833 3.0141V15.1389H11.5477Z" fill="#F9F9F9"/>
<path d="M4.78212 15.1389C4.47545 15.1389 4.22656 15.3519 4.22656 15.6155C4.22656 15.8791 4.47545 16.0921 4.78212 16.0921H6.47323C6.7799 16.0921 7.02878 15.8791 7.02878 15.6155V3.49072H8.16434C8.47101 3.49072 8.7199 3.27719 8.7199 3.0141C8.7199 2.751 8.47101 2.53748 8.16434 2.53748H6.47323C6.16656 2.53748 5.91767 2.751 5.91767 3.0141V15.1389H4.78212Z" fill="#F9F9F9"/>
<path d="M8.16493 15.1389C7.85826 15.1389 7.60938 15.3519 7.60938 15.6155C7.60938 15.8791 7.85826 16.0921 8.16493 16.0921H9.85549C10.1622 16.0921 10.411 15.8791 10.411 15.6155V3.49072H11.5466C11.8533 3.49072 12.1022 3.27719 12.1022 3.0141C12.1022 2.751 11.8533 2.53748 11.5466 2.53748H9.85549C9.54882 2.53748 9.29993 2.751 9.29993 3.0141V15.1389H8.16493Z" fill="#F9F9F9"/>
<circle cx="32.6" cy="6.6" r="5.6" fill="#19242F"/>
<path d="M30.5689 10V3.45455H33.1513C33.6456 3.45455 34.0675 3.54297 34.4169 3.71982C34.7685 3.89453 35.0359 4.14276 35.2191 4.46449C35.4045 4.78409 35.4972 5.16016 35.4972 5.59268C35.4972 6.02734 35.4034 6.40128 35.2159 6.71449C35.0284 7.02557 34.7567 7.2642 34.4009 7.4304C34.0472 7.59659 33.619 7.67969 33.1161 7.67969H31.3871V6.56747H32.8924C33.1566 6.56747 33.3761 6.53125 33.5508 6.45881C33.7255 6.38636 33.8555 6.2777 33.9407 6.13281C34.0281 5.98793 34.0717 5.80788 34.0717 5.59268C34.0717 5.37535 34.0281 5.19212 33.9407 5.04297C33.8555 4.89382 33.7244 4.78089 33.5476 4.70419C33.3729 4.62536 33.1523 4.58594 32.886 4.58594H31.9528V10H30.5689ZM34.1037 7.02131L35.7305 10H34.2028L32.6112 7.02131H34.1037Z" fill="#F9F9F9"/>
</svg>
