<svg width="44" height="22" viewBox="0 0 44 22" fill="none" xmlns="http://www.w3.org/2000/svg">
<path d="M18.9379 17.8147C18.6914 17.8147 18.4922 18.07 18.4922 18.3859C18.4922 18.7018 18.6914 18.9572 18.9379 18.9572H20.2945C20.5409 18.9572 20.7401 18.7018 20.7401 18.3859V3.85347H21.6511C21.8975 3.85347 22.0967 3.59754 22.0967 3.2822C22.0967 2.96687 21.8975 2.71094 21.6511 2.71094H20.2945C20.048 2.71094 19.8488 2.96687 19.8488 3.2822V17.8147H18.9379Z" fill="#F9F9F9"/>
<path d="M13.1645 17.8147C12.9184 17.8147 12.7188 18.07 12.7188 18.3859C12.7188 18.7018 12.9184 18.9572 13.1645 18.9572H14.5208C14.7668 18.9572 14.9665 18.7018 14.9665 18.3859V3.85347H15.8776C16.1236 3.85347 16.3233 3.59754 16.3233 3.2822C16.3233 2.96687 16.1236 2.71094 15.8776 2.71094H14.5208C14.2748 2.71094 14.0751 2.96687 14.0751 3.2822V17.8147H13.1645Z" fill="#F9F9F9"/>
<path d="M16.0472 17.8147C15.8012 17.8147 15.6016 18.07 15.6016 18.3859C15.6016 18.7018 15.8012 18.9572 16.0472 18.9572H17.4038C17.6498 18.9572 17.8495 18.7018 17.8495 18.3859V3.85347H18.7604C19.0069 3.85347 19.2061 3.59754 19.2061 3.2822C19.2061 2.96687 19.0069 2.71094 18.7604 2.71094H17.4038C17.1578 2.71094 16.9582 2.96687 16.9582 3.2822V17.8147H16.0472Z" fill="#F9F9F9"/>
<path d="M27.5863 17.8147C27.3398 17.8147 27.1406 18.07 27.1406 18.3859C27.1406 18.7018 27.3398 18.9572 27.5863 18.9572H28.9429C29.1893 18.9572 29.3886 18.7018 29.3886 18.3859V3.85347H30.2995C30.5459 3.85347 30.7452 3.59754 30.7452 3.2822C30.7452 2.96687 30.5459 2.71094 30.2995 2.71094H28.9429C28.6964 2.71094 28.4972 2.96687 28.4972 3.2822V17.8147H27.5863Z" fill="#F9F9F9"/>
<path d="M36.2347 17.8147C35.9883 17.8147 35.7891 18.07 35.7891 18.3859C35.7891 18.7018 35.9883 18.9572 36.2347 18.9572H37.5913C37.8378 18.9572 38.037 18.7018 38.037 18.3859V3.85347H38.9479C39.1944 3.85347 39.3936 3.59754 39.3936 3.2822C39.3936 2.96687 39.1944 2.71094 38.9479 2.71094H37.5913C37.3449 2.71094 37.1457 2.96687 37.1457 3.2822V17.8147H36.2347Z" fill="#F9F9F9"/>
<path d="M21.8207 17.8147C21.5742 17.8147 21.375 18.07 21.375 18.3859C21.375 18.7018 21.5742 18.9572 21.8207 18.9572H23.1775C23.424 18.9572 23.6232 18.7018 23.6232 18.3859V3.85347H24.5338C24.7803 3.85347 24.9795 3.59754 24.9795 3.2822C24.9795 2.96687 24.7803 2.71094 24.5338 2.71094H23.1775C22.931 2.71094 22.7318 2.96687 22.7318 3.2822V17.8147H21.8207Z" fill="#F9F9F9"/>
<path d="M30.4692 17.8147C30.2227 17.8147 30.0234 18.07 30.0234 18.3859C30.0234 18.7018 30.2227 18.9572 30.4692 18.9572H31.8259C32.0724 18.9572 32.2716 18.7018 32.2716 18.3859V3.85347H33.1822C33.4287 3.85347 33.628 3.59754 33.628 3.2822C33.628 2.96687 33.4287 2.71094 33.1822 2.71094H31.8259C31.5794 2.71094 31.3802 2.96687 31.3802 3.2822V17.8147H30.4692Z" fill="#F9F9F9"/>
<path d="M24.7035 17.8147C24.457 17.8147 24.2578 18.07 24.2578 18.3859C24.2578 18.7018 24.457 18.9572 24.7035 18.9572H26.0601C26.3065 18.9572 26.5057 18.7018 26.5057 18.3859V3.85347H27.4167C27.6631 3.85347 27.8623 3.59754 27.8623 3.2822C27.8623 2.96687 27.6631 2.71094 27.4167 2.71094H26.0601C25.8136 2.71094 25.6144 2.96687 25.6144 3.2822V17.8147H24.7035Z" fill="#F9F9F9"/>
<path d="M33.3519 17.8147C33.1055 17.8147 32.9062 18.07 32.9062 18.3859C32.9062 18.7018 33.1055 18.9572 33.3519 18.9572H34.7085C34.955 18.9572 35.1542 18.7018 35.1542 18.3859V3.85347H36.0651C36.3116 3.85347 36.5108 3.59754 36.5108 3.2822C36.5108 2.96687 36.3116 2.71094 36.0651 2.71094H34.7085C34.4621 2.71094 34.2629 2.96687 34.2629 3.2822V17.8147H33.3519Z" fill="#F9F9F9"/>
<path d="M10.2816 17.8147C10.0356 17.8147 9.83594 18.07 9.83594 18.3859C9.83594 18.7018 10.0356 18.9572 10.2816 18.9572H11.6382C11.8842 18.9572 12.0839 18.7018 12.0839 18.3859V3.85347H12.9948C13.2408 3.85347 13.4405 3.59754 13.4405 3.2822C13.4405 2.96687 13.2408 2.71094 12.9948 2.71094H11.6382C11.3922 2.71094 11.1925 2.96687 11.1925 3.2822V17.8147H10.2816Z" fill="#F9F9F9"/>
<path d="M4.51598 17.8147C4.26997 17.8147 4.07031 18.07 4.07031 18.3859C4.07031 18.7018 4.26997 18.9572 4.51598 18.9572H5.87258C6.11858 18.9572 6.31824 18.7018 6.31824 18.3859V3.85347H7.22918C7.47519 3.85347 7.67484 3.59754 7.67484 3.2822C7.67484 2.96687 7.47519 2.71094 7.22918 2.71094H5.87258C5.62657 2.71094 5.42691 2.96687 5.42691 3.2822V17.8147H4.51598Z" fill="#F9F9F9"/>
<path d="M7.39884 17.8147C7.15281 17.8147 6.95312 18.07 6.95312 18.3859C6.95312 18.7018 7.15281 18.9572 7.39884 18.9572H8.75517C9.0012 18.9572 9.20089 18.7018 9.20089 18.3859V3.85347H10.1119C10.358 3.85347 10.5577 3.59754 10.5577 3.2822C10.5577 2.96687 10.358 2.71094 10.1119 2.71094H8.75517C8.50913 2.71094 8.30945 2.96687 8.30945 3.2822V17.8147H7.39884Z" fill="#F9F9F9"/>
<path d="M42.5458 4.08679C42.6055 4.08679 42.6645 4.07285 42.7196 4.04578C42.7747 4.01871 42.8248 3.97903 42.867 3.92901C42.9091 3.87899 42.9426 3.8196 42.9654 3.75424C42.9883 3.68889 43 3.61884 43 3.5481V1.53869C43 1.39582 42.9521 1.2588 42.867 1.15778C42.7818 1.05675 42.6663 1 42.5458 1H1.45417C1.33372 1 1.2182 1.05675 1.13302 1.15778C1.04785 1.2588 1 1.39582 1 1.53869V3.5481C1 3.61884 1.01175 3.68889 1.03457 3.75424C1.0574 3.8196 1.09085 3.87899 1.13302 3.92901C1.1752 3.97903 1.22526 4.01871 1.28037 4.04578C1.33547 4.07285 1.39453 4.08679 1.45417 4.08679H2.17508V17.8961H1.45417C1.33372 17.8961 1.2182 17.9529 1.13302 18.0539C1.04785 18.1549 1 18.2919 1 18.4348V20.4613C1 20.6042 1.04785 20.7412 1.13302 20.8422C1.2182 20.9432 1.33372 21 1.45417 21H42.5458C42.6663 21 42.7818 20.9432 42.867 20.8422C42.9521 20.7412 43 20.6042 43 20.4613V18.4091C42.9944 18.2708 42.9441 18.1403 42.8596 18.0447C42.775 17.9492 42.6626 17.896 42.5458 17.8961H41.8249V4.08679H42.5458ZM2.69413 19.7516C2.69415 19.859 2.65868 19.9621 2.59534 20.0388C2.532 20.1156 2.44582 20.1598 2.3553 20.162H1.81462C1.72343 20.1598 1.63648 20.1159 1.57198 20.0394C1.50748 19.9629 1.47043 19.8598 1.46859 19.7516V19.0761C1.47048 18.9687 1.50776 18.8665 1.57245 18.7914C1.63715 18.7163 1.72409 18.6742 1.81462 18.6742H2.38414C2.474 18.6742 2.56018 18.7166 2.62373 18.7919C2.68727 18.8673 2.72297 18.9695 2.72297 19.0761L2.69413 19.7516ZM2.69413 2.88114C2.69413 2.98773 2.65843 3.08995 2.59489 3.16532C2.53135 3.24068 2.44517 3.28303 2.3553 3.28303H1.81462C1.72409 3.28305 1.63715 3.24098 1.57245 3.16585C1.50776 3.09072 1.47048 2.98851 1.46859 2.88114V2.20564C1.47048 2.09828 1.50776 1.99607 1.57245 1.92094C1.63715 1.8458 1.72409 1.80374 1.81462 1.80376H2.38414C2.474 1.80376 2.56018 1.8461 2.62373 1.92147C2.68727 1.99684 2.72297 2.09906 2.72297 2.20564L2.69413 2.88114ZM42.1926 18.6486C42.2831 18.6485 42.3701 18.6906 42.4348 18.7657C42.4994 18.8409 42.5367 18.9431 42.5386 19.0504V19.726C42.5368 19.8341 42.4997 19.9372 42.4352 20.0138C42.3707 20.0903 42.2838 20.1342 42.1926 20.1364H41.6231C41.5326 20.1341 41.4464 20.0899 41.383 20.0132C41.3197 19.9365 41.2842 19.8333 41.2842 19.726V19.0504C41.2842 18.9439 41.3199 18.8416 41.3835 18.7663C41.447 18.6909 41.5332 18.6486 41.6231 18.6486H42.1926ZM41.6231 3.25737C41.5332 3.25737 41.447 3.21503 41.3835 3.13967C41.3199 3.0643 41.2842 2.96208 41.2842 2.85549V2.17999C41.2842 2.0734 41.3199 1.97118 41.3835 1.89582C41.447 1.82045 41.5332 1.77811 41.6231 1.77811H42.1854C42.2759 1.77809 42.3629 1.82015 42.4275 1.89528C42.4922 1.97041 42.5295 2.07262 42.5314 2.17999V2.85549C42.5295 2.96286 42.4922 3.06507 42.4275 3.1402C42.3629 3.21533 42.2759 3.2574 42.1854 3.25737H41.6231Z" stroke="#F9F9F9" stroke-width="1.5"/>
</svg>
