<svg width="18" height="18" viewBox="0 0 18 18" fill="none" xmlns="http://www.w3.org/2000/svg">
<circle cx="9" cy="9" r="9" transform="matrix(-1 0 0 1 18 0)" fill="#C72C32"/>
<path d="M8.23077 5.53846H9.76923C9.76923 5.33445 9.68819 5.13879 9.54393 4.99453C9.39967 4.85027 9.20401 4.76923 9 4.76923C8.79599 4.76923 8.60033 4.85027 8.45607 4.99453C8.31181 5.13879 8.23077 5.33445 8.23077 5.53846V5.53846ZM7.46154 5.53846C7.46154 5.13044 7.62363 4.73912 7.91214 4.4506C8.20066 4.16209 8.59197 4 9 4C9.40803 4 9.79934 4.16209 10.0879 4.4506C10.3764 4.73912 10.5385 5.13044 10.5385 5.53846H13.6154C13.7174 5.53846 13.8152 5.57898 13.8873 5.65111C13.9595 5.72324 14 5.82107 14 5.92308C14 6.02508 13.9595 6.12291 13.8873 6.19504C13.8152 6.26717 13.7174 6.30769 13.6154 6.30769H13.1815L12.2546 13.1062C12.1917 13.5669 11.9641 13.9892 11.6138 14.295C11.2635 14.6007 10.8142 14.7692 10.3492 14.7692H7.65077C7.18578 14.7692 6.73655 14.6007 6.38623 14.295C6.03592 13.9892 5.80825 13.5669 5.74538 13.1062L4.81846 6.30769H4.38462C4.28261 6.30769 4.18478 6.26717 4.11265 6.19504C4.04052 6.12291 4 6.02508 4 5.92308C4 5.82107 4.04052 5.72324 4.11265 5.65111C4.18478 5.57898 4.28261 5.53846 4.38462 5.53846H7.46154ZM8.23077 8.23077C8.23077 8.12876 8.19025 8.03093 8.11812 7.95881C8.04599 7.88668 7.94816 7.84615 7.84615 7.84615C7.74415 7.84615 7.64632 7.88668 7.57419 7.95881C7.50206 8.03093 7.46154 8.12876 7.46154 8.23077V12.0769C7.46154 12.1789 7.50206 12.2768 7.57419 12.3489C7.64632 12.421 7.74415 12.4615 7.84615 12.4615C7.94816 12.4615 8.04599 12.421 8.11812 12.3489C8.19025 12.2768 8.23077 12.1789 8.23077 12.0769V8.23077ZM10.1538 7.84615C10.2559 7.84615 10.3537 7.88668 10.4258 7.95881C10.4979 8.03093 10.5385 8.12876 10.5385 8.23077V12.0769C10.5385 12.1789 10.4979 12.2768 10.4258 12.3489C10.3537 12.421 10.2559 12.4615 10.1538 12.4615C10.0518 12.4615 9.95401 12.421 9.88188 12.3489C9.80975 12.2768 9.76923 12.1789 9.76923 12.0769V8.23077C9.76923 8.12876 9.80975 8.03093 9.88188 7.95881C9.95401 7.88668 10.0518 7.84615 10.1538 7.84615ZM6.50769 13.0023C6.54544 13.2787 6.68203 13.532 6.89219 13.7155C7.10234 13.8989 7.37183 14 7.65077 14H10.3492C10.6283 14.0001 10.898 13.8991 11.1083 13.7157C11.3186 13.5323 11.4553 13.2788 11.4931 13.0023L12.4054 6.30769H5.59462L6.50769 13.0023Z" fill="#F9F9F9"/>
</svg>
