<svg width="18" height="18" viewBox="0 0 18 18" fill="none" xmlns="http://www.w3.org/2000/svg">
<circle cx="9" cy="9" r="9" transform="matrix(-1 0 0 1 18 0)" fill="#7ECC29"/>
<path d="M5 13.1246H12.8747" stroke="#191919" stroke-width="1.5" stroke-linecap="round"/>
<path d="M12.2197 6.53144C12.4151 6.3362 12.4151 6.01956 12.2198 5.82426L11.1754 4.77982C10.9801 4.58451 10.6635 4.58455 10.4682 4.77992L5.34388 9.90729C5.26374 9.98748 5.21323 10.0925 5.20063 10.2052L5.06953 11.378C5.0339 11.6967 5.30328 11.9661 5.62199 11.9305L6.79469 11.7994C6.90736 11.7868 7.01241 11.7362 7.0926 11.6561L12.2197 6.53144ZM13.9069 4.39522L12.6045 3.09271C12.4809 2.9691 12.2789 2.9691 12.1583 3.09271L11.5802 3.67083C11.3849 3.86609 11.3849 4.18265 11.5802 4.37791L12.6248 5.42254C12.82 5.61782 13.1366 5.61782 13.3319 5.42254L13.9099 4.84447C14.0305 4.71784 14.0305 4.51884 13.9069 4.39522Z" fill="#191919"/>
</svg>
